<?xml version="1.0" encoding="iso-8859-1"?>
<!-- Uploaded to: SVG Repo, www.svgrepo.com, Generator: SVG Repo Mixer Tools -->
<svg version="1.1" id="Layer_1" xmlns="http://www.w3.org/2000/svg" xmlns:xlink="http://www.w3.org/1999/xlink" 
	 viewBox="0 0 512 512" xml:space="preserve">
<g>
	<path style="fill:#333E48;" d="M80.273,500.154c-3.292,0-6.627-0.86-9.658-2.673c-8.947-5.344-11.87-16.93-6.522-25.877
		l47.809-80.027c5.343-8.947,16.933-11.868,25.875-6.521c8.949,5.344,11.87,16.931,6.525,25.877L96.493,490.96
		C92.96,496.872,86.696,500.154,80.273,500.154z"/>
	<path style="fill:#333E48;" d="M388.255,500.154c-6.423,0-12.683-3.281-16.217-9.194l-47.809-80.027
		c-5.345-8.947-2.424-20.533,6.522-25.877c8.946-5.346,20.536-2.425,25.879,6.521l47.806,80.027
		c5.345,8.947,2.424,20.533-6.522,25.877C394.886,499.291,391.549,500.154,388.255,500.154z"/>
</g>
<circle style="fill:#00A8E1;" cx="234.261" cy="246.108" r="234.261"/>
<circle style="fill:#0071CE;" cx="234.261" cy="246.108" r="164.443"/>
<circle style="fill:#0055B8;" cx="234.261" cy="246.108" r="82.665"/>
<polygon style="fill:#FF9E16;" points="512,183.205 429.855,183.205 402.485,246.104 484.63,246.104 "/>
<polygon style="opacity:0.2;enable-background:new    ;" points="460.308,183.205 432.939,246.104 451.087,246.104 478.457,183.205 
	"/>
<polygon style="fill:#FF9E16;" points="512,309.004 429.855,309.004 402.485,246.104 484.63,246.104 "/>
<polygon style="opacity:0.2;enable-background:new    ;" points="451.087,246.104 432.939,246.104 460.308,309.004 478.457,309.004 
	"/>
<path style="fill:#333E48;" d="M484.63,264.976H234.264c-10.421,0-18.872-8.451-18.872-18.872c0-10.423,8.451-18.872,18.872-18.872
	H484.63c10.421,0,18.87,8.449,18.87,18.872C503.499,256.525,495.051,264.976,484.63,264.976z"/>
<rect x="364.167" y="227.236" style="fill:#FFFFFF;" width="16.642" height="37.744"/>
</svg>